<svg version="1.1" xmlns="http://www.w3.org/2000/svg" viewBox="0 0 648.03515625 850.2778814406622" width="648.03515625" height="850.2778814406622">
  <!-- svg-source:excalidraw -->
  
  <defs>
    <style class="style-fonts">
      @font-face {
        font-family: "Virgil";
        src: url("https://excalidraw.com/Virgil.woff2");
      }
      @font-face {
        font-family: "Cascadia";
        src: url("https://excalidraw.com/Cascadia.woff2");
      }
    </style>
  </defs>
  <rect x="0" y="0" width="648.03515625" height="850.2778814406622" fill="#ffffff"></rect><g stroke-linecap="round" transform="translate(10 43.615763346354186) rotate(0 313.51171875 398.331059047154)"><path d="M0.6 0.79 C149.14 1.07, 297.37 1.04, 627.38 0.2 M0.12 -0.25 C169.79 -1.6, 340.22 -1.59, 627.32 -0.33 M626.34 -0.26 C630.11 165.54, 629.6 330.42, 627.16 797.06 M627.36 0.4 C624.92 173.42, 624.33 346.33, 627.08 796.27 M626.84 796.96 C482.91 797.43, 339.43 796.27, 0.8 795.92 M626.77 796.56 C490.23 794.45, 353.13 794.34, 0.01 796.72 M-0.19 795.98 C1.49 508.61, 1.45 222.6, -0.56 -0.05 M0.24 796.45 C-2.67 546.26, -2.33 295.8, -0.2 -0.35" stroke="#000000" stroke-width="1" fill="none"></path></g><g stroke-linecap="round" transform="translate(12.77734375 47.932963053385436) rotate(0 311.01171875 40.197265624999986)"><path d="M0 0 C134.14 0, 268.27 0, 622.02 0 M0 0 C197.52 0, 395.04 0, 622.02 0 M622.02 0 C622.02 24.71, 622.02 49.41, 622.02 80.39 M622.02 0 C622.02 20.52, 622.02 41.04, 622.02 80.39 M622.02 80.39 C415.86 80.39, 209.71 80.39, 0 80.39 M622.02 80.39 C382.09 80.39, 142.16 80.39, 0 80.39 M0 80.39 C0 63.66, 0 46.93, 0 0 M0 80.39 C0 60.96, 0 41.52, 0 0" stroke="#000000" stroke-width="1" fill="none"></path></g><g transform="translate(71.18221028645837 63.94667053222662) rotate(0 29.296875 12)"><text x="29.296875" y="0" font-family="Cascadia, Segoe UI Emoji" font-size="20px" fill="#000000" text-anchor="middle" style="white-space: pre;" direction="ltr" dominant-baseline="text-before-edge">Title</text></g><g stroke-linecap="round"><g transform="translate(14.734375 99.30405680338544) rotate(0 311.650390625 0.236328125)"><path d="M0 0 C103.88 0.08, 519.42 0.39, 623.3 0.47" stroke="#000000" stroke-width="1.5" fill="none" stroke-dasharray="1.5 7"></path></g></g><mask></mask><g transform="translate(467.139383951823 10) rotate(0 38.90625 34.5)"><text x="38.90625" y="0" font-family="Helvetica, Segoe UI Emoji" font-size="20px" fill="#000000" text-anchor="middle" style="white-space: pre;" direction="ltr" dominant-baseline="text-before-edge"></text><text x="38.90625" y="23" font-family="Helvetica, Segoe UI Emoji" font-size="20px" fill="#000000" text-anchor="middle" style="white-space: pre;" direction="ltr" dominant-baseline="text-before-edge"></text><text x="38.90625" y="46" font-family="Helvetica, Segoe UI Emoji" font-size="20px" fill="#000000" text-anchor="middle" style="white-space: pre;" direction="ltr" dominant-baseline="text-before-edge">nav links</text></g><g stroke-linecap="round" transform="translate(79.6453857421875 138.31264750162762) rotate(0 65.42422485351562 39.90547180175781)"><path d="M0 0 C40.01 0, 80.01 0, 130.85 0 M0 0 C42.55 0, 85.1 0, 130.85 0 M130.85 0 C130.85 19.3, 130.85 38.59, 130.85 79.81 M130.85 0 C130.85 18.77, 130.85 37.54, 130.85 79.81 M130.85 79.81 C94.72 79.81, 58.6 79.81, 0 79.81 M130.85 79.81 C92.06 79.81, 53.27 79.81, 0 79.81 M0 79.81 C0 54.08, 0 28.35, 0 0 M0 79.81 C0 48.77, 0 17.74, 0 0" stroke="#000000" stroke-width="1" fill="none"></path></g><g transform="translate(92.4984130859375 152.83216349283856) rotate(0 54.4775390625 23)"><text x="0" y="0" font-family="Helvetica, Segoe UI Emoji" font-size="20px" fill="#000000" text-anchor="start" style="white-space: pre;" direction="ltr" dominant-baseline="text-before-edge">introduction:</text><text x="0" y="23" font-family="Helvetica, Segoe UI Emoji" font-size="20px" fill="#000000" text-anchor="start" style="white-space: pre;" direction="ltr" dominant-baseline="text-before-edge">lorum ipsum</text></g><g stroke-linecap="round" transform="translate(169.75311279296875 241.76413981119794) rotate(0 159.82421875 63.10546875)"><path d="M0 0 C96.72 0, 193.45 0, 319.65 0 M0 0 C117.14 0, 234.28 0, 319.65 0 M319.65 0 C319.65 28.8, 319.65 57.61, 319.65 126.21 M319.65 0 C319.65 25.91, 319.65 51.82, 319.65 126.21 M319.65 126.21 C222.45 126.21, 125.25 126.21, 0 126.21 M319.65 126.21 C245.21 126.21, 170.77 126.21, 0 126.21 M0 126.21 C0 93.87, 0 61.52, 0 0 M0 126.21 C0 100.7, 0 75.18, 0 0" stroke="#000000" stroke-width="1" fill="none"></path></g><g transform="translate(283.83203125 263.48765055338544) rotate(0 43.3544921875 46)"><text x="0" y="0" font-family="Helvetica, Segoe UI Emoji" font-size="20px" fill="#000000" text-anchor="start" style="white-space: pre;" direction="ltr" dominant-baseline="text-before-edge">main info:</text><text x="0" y="23" font-family="Helvetica, Segoe UI Emoji" font-size="20px" fill="#000000" text-anchor="start" style="white-space: pre;" direction="ltr" dominant-baseline="text-before-edge">- lorum</text><text x="0" y="46" font-family="Helvetica, Segoe UI Emoji" font-size="20px" fill="#000000" text-anchor="start" style="white-space: pre;" direction="ltr" dominant-baseline="text-before-edge">- ipsum</text><text x="0" y="69" font-family="Helvetica, Segoe UI Emoji" font-size="20px" fill="#000000" text-anchor="start" style="white-space: pre;" direction="ltr" dominant-baseline="text-before-edge"></text></g><g stroke-linecap="round" transform="translate(399.20306396484375 143.81035868326825) rotate(0 67.072265625 39.33280944824219)"><path d="M0 0 C40.29 0, 80.58 0, 134.14 0 M0 0 C27.75 0, 55.51 0, 134.14 0 M134.14 0 C134.14 21.27, 134.14 42.55, 134.14 78.67 M134.14 0 C134.14 21.02, 134.14 42.05, 134.14 78.67 M134.14 78.67 C92.71 78.67, 51.28 78.67, 0 78.67 M134.14 78.67 C86.14 78.67, 38.14 78.67, 0 78.67 M0 78.67 C0 57.29, 0 35.92, 0 0 M0 78.67 C0 49.89, 0 21.12, 0 0" stroke="#000000" stroke-width="1" fill="none"></path></g><g transform="translate(409.087890625 168.84311930338544) rotate(0 56.25 19)"><text x="56.25" y="0" font-family="Cascadia, Segoe UI Emoji" font-size="16px" fill="#000000" text-anchor="middle" style="white-space: pre;" direction="ltr" dominant-baseline="text-before-edge">Request Demo</text><text x="56.25" y="19" font-family="Cascadia, Segoe UI Emoji" font-size="16px" fill="#000000" text-anchor="middle" style="white-space: pre;" direction="ltr" dominant-baseline="text-before-edge">Form</text></g><g stroke-linecap="round" transform="translate(16.443949381510492 766.8538208007812) rotate(0 309.470703125 29.607421875)"><path d="M0 0 C163.22 0, 326.44 0, 618.94 0 M0 0 C200.45 0, 400.9 0, 618.94 0 M618.94 0 C618.94 21.44, 618.94 42.88, 618.94 59.21 M618.94 0 C618.94 15.52, 618.94 31.04, 618.94 59.21 M618.94 59.21 C384.33 59.21, 149.71 59.21, 0 59.21 M618.94 59.21 C387.05 59.21, 155.17 59.21, 0 59.21 M0 59.21 C0 42.6, 0 25.98, 0 0 M0 59.21 C0 37.5, 0 15.79, 0 0" stroke="#000000" stroke-width="1" fill="none"></path></g><g transform="translate(287.5269368489585 782.4439798990884) rotate(0 38.90625 11.5)"><text x="38.90625" y="0" font-family="Helvetica, Segoe UI Emoji" font-size="20px" fill="#000000" text-anchor="middle" style="white-space: pre;" direction="ltr" dominant-baseline="text-before-edge">nav links</text></g><g stroke-linecap="round" transform="translate(23.99334716796875 419.95557657877606) rotate(0 95.02423095703125 46.30548095703125)"><path d="M0 0 C67.77 0, 135.54 0, 190.05 0 M0 0 C39.28 0, 78.57 0, 190.05 0 M190.05 0 C190.05 35.48, 190.05 70.96, 190.05 92.61 M190.05 0 C190.05 28.88, 190.05 57.77, 190.05 92.61 M190.05 92.61 C142.04 92.61, 94.03 92.61, 0 92.61 M190.05 92.61 C128.32 92.61, 66.58 92.61, 0 92.61 M0 92.61 C0 59.89, 0 27.17, 0 0 M0 92.61 C0 60.15, 0 27.68, 0 0" stroke="#000000" stroke-width="1" fill="none"></path></g><g transform="translate(93.34760284423828 453.7610575358073) rotate(0 25.66997528076172 12.5)"><text x="25.66997528076172" y="0" font-family="Virgil, Segoe UI Emoji" font-size="20px" fill="#000000" text-anchor="middle" style="white-space: pre;" direction="ltr" dominant-baseline="text-before-edge">image</text></g><g stroke-linecap="round" transform="translate(377.59332275390625 408.15552775065106) rotate(0 83.5 24)"><path d="M0 0 C59.64 0, 119.28 0, 167 0 M0 0 C51.02 0, 102.03 0, 167 0 M167 0 C167 13.05, 167 26.1, 167 48 M167 0 C167 12.26, 167 24.53, 167 48 M167 48 C132.37 48, 97.74 48, 0 48 M167 48 C115.71 48, 64.41 48, 0 48 M0 48 C0 31.68, 0 15.37, 0 0 M0 48 C0 37.7, 0 27.4, 0 0" stroke="#000000" stroke-width="1" fill="none"></path></g><g transform="translate(413.49337005615234 419.65552775065106) rotate(0 47.599952697753906 12.5)"><text x="47.599952697753906" y="0" font-family="Virgil, Segoe UI Emoji" font-size="20px" fill="#000000" text-anchor="middle" style="white-space: pre;" direction="ltr" dominant-baseline="text-before-edge">Aside info</text></g><g stroke-linecap="round" transform="translate(380.517578125 466.06104532877606) rotate(0 83.5 24)"><path d="M0 0 C58.72 0, 117.44 0, 167 0 M0 0 C52.65 0, 105.31 0, 167 0 M167 0 C167 14.34, 167 28.69, 167 48 M167 0 C167 10.96, 167 21.92, 167 48 M167 48 C111.38 48, 55.75 48, 0 48 M167 48 C113.69 48, 60.37 48, 0 48 M0 48 C0 30.29, 0 12.59, 0 0 M0 48 C0 34.45, 0 20.89, 0 0" stroke="#000000" stroke-width="1" fill="none"></path></g><g transform="translate(416.4176254272461 477.56104532877606) rotate(0 47.599952697753906 12.5)"><text x="47.599952697753906" y="0" font-family="Virgil, Segoe UI Emoji" font-size="20px" fill="#000000" text-anchor="middle" style="white-space: pre;" direction="ltr" dominant-baseline="text-before-edge">Aside info</text></g><g stroke-linecap="round" transform="translate(11.707580566406023 532.9556506928943) rotate(0 310.5 46.5)"><path d="M0 0 C225.97 0, 451.94 0, 621 0 M0 0 C205.86 0, 411.72 0, 621 0 M621 0 C621 36.32, 621 72.63, 621 93 M621 0 C621 32.76, 621 65.53, 621 93 M621 93 C423.5 93, 226 93, 0 93 M621 93 C473.26 93, 325.52 93, 0 93 M0 93 C0 72.78, 0 52.57, 0 0 M0 93 C0 57.16, 0 21.31, 0 0" stroke="#000000" stroke-width="1" fill="none"></path></g><g transform="translate(276.9776229858396 566.9556506928943) rotate(0 45.229957580566406 12.5)"><text x="45.229957580566406" y="0" font-family="Virgil, Segoe UI Emoji" font-size="20px" fill="#000000" text-anchor="middle" style="white-space: pre;" direction="ltr" dominant-baseline="text-before-edge">More info</text></g><g stroke-linecap="round" transform="translate(12.517618815104242 641.0943705240884) rotate(0 310.5 46.5)"><path d="M0 0 C219.48 0, 438.96 0, 621 0 M0 0 C189.27 0, 378.54 0, 621 0 M621 0 C621 35.47, 621 70.94, 621 93 M621 0 C621 36.64, 621 73.27, 621 93 M621 93 C477.15 93, 333.31 93, 0 93 M621 93 C469.93 93, 318.87 93, 0 93 M0 93 C0 68.57, 0 44.14, 0 0 M0 93 C0 73.27, 0 53.53, 0 0" stroke="#000000" stroke-width="1" fill="none"></path></g><g transform="translate(288.6576487223308 675.0943705240884) rotate(0 34.35997009277344 12.5)"><text x="34.35997009277344" y="0" font-family="Virgil, Segoe UI Emoji" font-size="20px" fill="#000000" text-anchor="middle" style="white-space: pre;" direction="ltr" dominant-baseline="text-before-edge">Images</text></g></svg>